PathFileType	4	(X/Y/Z)	/Users/itak/Documents/Research/Walk-IL/dataset/trc/00288_00010.trc
DataRate	CameraRate	NumFrames	NumMarkers	Units	OrigDataRate	OrigDataStartFrame	OrigNumFrames
100.000000	100.000000	4	53	mm	100.000000	334	669
Frame#	Time	RPSI			LPSI			L3			STRN			T10			C7			CLAV			RBAK			LBAK			LSHO			LUPA			LAEL			LAOL			LWTS			LWPS			LFRA			LHPS			LHTS			RSHO			RUPA			RAEL			RAOL			RWTS			RWPS			RFRA			RIFD			RHPS			RBHD			LFHD			RFHD			LBHD			RHIP			RASI			LASI			LKNE			LTHI			LANK			LTIP			LTOE			LMT1			LMT5			LHEE			RKNE			RTHI			RANK			RTIP			RTOE			RMT1			RMT5			RHEE			LIFD			RHTS			LHIP			
		X1	Y1	Z1	X2	Y2	Z2	X3	Y3	Z3	X4	Y4	Z4	X5	Y5	Z5	X6	Y6	Z6	X7	Y7	Z7	X8	Y8	Z8	X9	Y9	Z9	X10	Y10	Z10	X11	Y11	Z11	X12	Y12	Z12	X13	Y13	Z13	X14	Y14	Z14	X15	Y15	Z15	X16	Y16	Z16	X17	Y17	Z17	X18	Y18	Z18	X19	Y19	Z19	X20	Y20	Z20	X21	Y21	Z21	X22	Y22	Z22	X23	Y23	Z23	X24	Y24	Z24	X25	Y25	Z25	X26	Y26	Z26	X27	Y27	Z27	X28	Y28	Z28	X29	Y29	Z29	X30	Y30	Z30	X31	Y31	Z31	X32	Y32	Z32	X33	Y33	Z33	X34	Y34	Z34	X35	Y35	Z35	X36	Y36	Z36	X37	Y37	Z37	X38	Y38	Z38	X39	Y39	Z39	X40	Y40	Z40	X41	Y41	Z41	X42	Y42	Z42	X43	Y43	Z43	X44	Y44	Z44	X45	Y45	Z45	X46	Y46	Z46	X47	Y47	Z47	X48	Y48	Z48	X49	Y49	Z49	X50	Y50	Z50	X51	Y51	Z51	X52	Y52	Z52	X53	Y53	Z53	

335	3.34	326.8064880371094	940.3988647460938	-407.9051208496094	385.935791015625	960.2236328125	-569.7672729492188	373.77490234375	1023.657348632812	-498.7801818847656	618.7066040039062	1186.825317382812	-389.1270446777344	377.1234436035156	1144.49169921875	-507.1013793945312	442.8136596679688	1385.496215820312	-492.6103210449219	571.43212890625	1292.267211914062	-414.0279846191406	352.8482360839844	1251.383422851562	-455.4823913574219	478.103515625	1349.445434570312	-592.1426391601562	579.8938598632812	1351.834228515625	-590.4625244140625	601.8552856445312	1245.769897460938	-677.2317504882812	656.5652465820312	1066.66162109375	-713.6969604492188	590.5990600585938	1013.974487304688	-686.8577270507812	843.6674194335938	965.9039306640625	-669.49658203125	834.97412109375	930.1923828125	-733.3168334960938	724.4705200195312	998.6627197265625	-729.9852905273438	910.654541015625	886.6980590820312	-728.7318115234375	937.2086181640625	935.5960693359375	-693.7997436523438	421.2034912109375	1361.831787109375	-322.6253967285156	372.8430480957031	1313.005615234375	-270.4694213867188	261.5491638183594	1069.986083984375	-263.2975158691406	294.0754089355469	1057.885620117188	-351.9294128417969	295.6288146972656	823.2481689453125	-250.1464385986328	212.9450073242188	842.2674560546875	-229.231689453125	248.8796844482422	1002.476318359375	-242.7693786621094	233.1516418457031	646.1251831054688	-257.0166015625	195.6528167724609	731.8389892578125	-220.6995697021484	425.9072875976562	1531.04345703125	-461.9226989746094	622.7811889648438	1581.382690429688	-399.3666076660156	548.93603515625	1577.777465820312	-342.6860046386719	543.018798828125	1526.995971679688	-547.7020874023438	392.7218627929688	882.37109375	-283.0586547851562	526.4510498046875	897.5902709960938	-315.8790893554688	598.9002075195312	913.5372924804688	-558.4435424804688	441.54150390625	465.6524353027344	-661.6261596679688	472.5228881835938	606.0940551757812	-662.08740234375	239.7164001464844	59.11138534545898	-729.5955810546875	340.3420715332031	259.8211059570312	-706.3916015625	426.0598449707031	32.29615783691406	-628.098876953125	346.102294921875	27.80222320556641	-603.777587890625	359.9625549316406	41.26748657226562	-714.9613647460938	178.5738372802734	61.23638916015625	-685.0224609375	602.2428588867188	459.074462890625	-284.2696228027344	492.6265258789062	697.4927978515625	-258.9922180175781	765.7958374023438	40.16174697875977	-289.5999145507812	665.357177734375	356.5097961425781	-278.4809875488281	942.6185302734375	121.6839828491211	-252.8927459716797	917.3782958984375	87.49574279785156	-307.9088745117188	841.2714233398438	72.4625244140625	-222.4423828125	747.09521484375	18.51943778991699	-353.7369079589844	997.0226440429688	875.162109375	-676.4490356445312	263.8018798828125	709.2286376953125	-221.4987030029297	479.2100219726562	920.145751953125	-645.701416015625	
336	3.35	335.6488647460938	938.6782836914062	-403.9546813964844	395.9837951660156	958.0870361328125	-565.480224609375	383.3963317871094	1021.13330078125	-494.7994079589844	626.5245971679688	1184.862426757812	-382.9846801757812	386.5298767089844	1141.814575195312	-503.3044128417969	450.8912353515625	1383.16748046875	-487.9987182617188	579.3021850585938	1290.32177734375	-408.0481262207031	361.5900268554688	1248.458984375	-452.2158203125	487.4279479980469	1347.454345703125	-587.4520263671875	589.1015014648438	1349.932983398438	-584.4315795898438	612.2161865234375	1243.784301757812	-670.7449340820312	667.967041015625	1065.2099609375	-706.6159057617188	602.0675659179688	1012.017333984375	-680.8478393554688	854.7630004882812	965.5654907226562	-659.2344360351562	847.6338500976562	930.3136596679688	-723.5217895507812	736.5542602539062	997.8922119140625	-721.8284301757812	923.6165771484375	887.4496459960938	-717.733154296875	949.0335693359375	936.2322998046875	-681.75390625	427.3171081542969	1359.155029296875	-318.3307189941406	378.4149780273438	1309.809204101562	-267.0939636230469	267.7252197265625	1066.577880859375	-263.447265625	302.4854431152344	1054.85107421875	-351.2301635742188	299.4234924316406	819.7791748046875	-250.7981872558594	216.4909210205078	839.6497802734375	-231.2535247802734	254.0694274902344	999.3532104492188	-243.3203430175781	234.4148712158203	643.5248413085938	-261.0957946777344	197.5188293457031	729.26708984375	-224.3235321044922	433.4324340820312	1529.223022460938	-457.6421508789062	629.7190551757812	1579.71337890625	-393.2178039550781	555.375	1576.048461914062	-337.2552795410156	551.5809936523438	1525.291259765625	-542.4002685546875	401.0942077636719	880.641357421875	-278.6540832519531	535.0121459960938	895.2811279296875	-310.8184509277344	609.0540771484375	910.9467163085938	-553.0821533203125	450.2140197753906	464.1725463867188	-658.4869384765625	482.0912170410156	604.4193725585938	-658.1343994140625	240.9039001464844	61.80656433105469	-730.110107421875	345.5342407226562	260.1572570800781	-704.9401245117188	426.130126953125	32.17678451538086	-628.060302734375	346.1724853515625	28.15076446533203	-604.0804443359375	360.5795593261719	41.51346206665039	-715.0303955078125	179.5623779296875	64.80894470214844	-685.7619018554688	611.0203857421875	458.0164489746094	-279.1580505371094	501.8389892578125	696.6270141601562	-254.1756439208984	766.5313110351562	37.61840438842773	-288.7055969238281	672.6453857421875	353.7897338867188	-273.8840026855469	943.8493041992188	113.4225387573242	-245.2481842041016	920.0786743164062	80.81248474121094	-301.6212768554688	840.5830078125	66.83504486083984	-218.798095703125	749.755126953125	17.10440254211426	-353.8130798339844	1010.40869140625	876.6593017578125	-663.3746337890625	265.3475646972656	705.7754516601562	-224.3958892822266	489.6782531738281	917.7640380859375	-640.7474975585938	
337	3.36	344.6885681152344	937.3338012695312	-399.6917419433594	406.2779541015625	956.20361328125	-560.8880615234375	393.1886291503906	1018.858642578125	-490.5353698730469	634.4401245117188	1183.188354492188	-376.5623474121094	396.0546875	1139.368041992188	-499.2818603515625	458.9908142089844	1381.088989257812	-483.2098999023438	587.203857421875	1288.61083984375	-401.8576354980469	370.3419189453125	1245.773803710938	-448.759033203125	496.802490234375	1345.72314453125	-582.5756225585938	598.353271484375	1348.251831054688	-578.2286987304688	622.4511108398438	1241.983154296875	-664.12255859375	679.0123291015625	1063.8271484375	-699.4426879882812	613.0800170898438	1010.265197753906	-674.7037963867188	865.263427734375	964.8660888671875	-648.865478515625	859.654541015625	930.1939086914062	-713.625	748.148193359375	997.0763549804688	-713.5662231445312	935.8233642578125	887.759765625	-706.63671875	960.1466674804688	936.2897338867188	-669.5438842773438	433.4724426269531	1356.695922851562	-313.8669738769531	384.0791931152344	1306.789916992188	-263.538330078125	274.22900390625	1063.275390625	-263.3114929199219	311.0924072265625	1051.915649414062	-350.21484375	303.8471984863281	816.4296875	-251.3132476806641	220.6904144287109	837.11376953125	-232.98486328125	259.7264099121094	996.3173217773438	-243.5876617431641	236.32470703125	641.1267700195312	-265.2933959960938	200.0317077636719	726.8040161132812	-227.8189392089844	440.8656311035156	1527.569213867188	-453.1566772460938	636.5442504882812	1578.393920898438	-386.9588012695312	561.7529907226562	1574.63427734375	-331.6813659667969	560.062255859375	1523.8505859375	-536.9568481445312	409.6782531738281	879.350830078125	-273.8813781738281	543.7003784179688	893.342529296875	-305.51904296875	619.4566650390625	908.6139526367188	-547.4434204101562	459.4360656738281	462.8408813476562	-655.0355224609375	492.1575317382812	602.8822631835938	-653.8377075195312	242.3388977050781	65.01715850830078	-730.6585693359375	351.0865478515625	260.8547973632812	-703.4037475585938	426.2662048339844	32.09283065795898	-628.0175170898438	346.3641662597656	28.73555183410645	-604.4075317382812	361.3862915039062	41.88703155517578	-715.1296997070312	180.84423828125	69.08116912841797	-686.5401000976562	619.9080810546875	457.2915649414062	-273.817138671875	511.2421875	696.195556640625	-249.0432281494141	766.2623291015625	35.3587532043457	-288.6051330566406	679.820068359375	351.1853637695312	-269.3077087402344	944.3353881835938	104.0311431884766	-238.4882202148438	921.9197998046875	73.53357696533203	-296.3344421386719	839.1306762695312	60.75786972045898	-216.1019744873047	751.4070434570312	16.1909008026123	-354.6442260742188	1022.661743164062	877.2640991210938	-650.095703125	267.5597534179688	702.4249877929688	-227.3866271972656	500.4028015136719	915.5907592773438	-635.4585571289062	
338	3.37	353.9198303222656	936.415283203125	-395.1510925292969	416.8676147460938	954.6117553710938	-556.0083618164062	403.1753845214844	1016.868896484375	-486.0015563964844	642.4425659179688	1181.882934570312	-369.8517150878906	405.7053833007812	1137.204833984375	-495.0511474609375	467.1139221191406	1379.315063476562	-478.2583923339844	595.1232299804688	1287.205322265625	-395.4632873535156	379.0876770019531	1243.387939453125	-445.1199951171875	506.2167358398438	1344.297973632812	-577.502197265625	607.6551513671875	1346.85546875	-571.85986328125	632.580322265625	1240.4345703125	-657.3749389648438	689.6946411132812	1062.558959960938	-692.1831665039062	623.5955200195312	1008.795959472656	-668.4151611328125	875.1442260742188	963.8057861328125	-638.3997802734375	871.0250244140625	929.8438110351562	-703.6488037109375	759.2383422851562	996.2464599609375	-705.2147216796875	947.2610473632812	887.6302490234375	-695.4842529296875	970.5252075195312	935.7476196289062	-657.2052612304688	439.6680908203125	1354.520874023438	-309.2497253417969	389.8313293457031	1304.029296875	-259.8071594238281	281.0368347167969	1060.16748046875	-262.8792114257812	319.8419494628906	1049.160034179688	-348.8898315429688	308.9198608398438	813.277099609375	-251.6407165527344	225.5530242919922	834.7200927734375	-234.3965454101562	265.8295288085938	993.4420776367188	-243.5650024414062	238.9378051757812	638.9894409179688	-269.5108947753906	203.2494049072266	724.5169067382812	-231.1155090332031	448.2154846191406	1526.140258789062	-448.4755859375	643.2598266601562	1577.470947265625	-380.58251953125	568.0634155273438	1573.584350585938	-325.9647827148438	568.4395141601562	1522.706420898438	-531.350341796875	418.4067077636719	878.5735473632812	-268.7373046875	552.4573974609375	891.8583984375	-299.951904296875	630.1419067382812	906.6015014648438	-541.4495239257812	469.2124938964844	461.6804809570312	-651.225341796875	502.7082214355469	601.5082397460938	-649.160888671875	244.0498046875	68.75164031982422	-731.2315063476562	357.0274963378906	261.9703369140625	-701.767333984375	426.4660339355469	32.04541397094727	-627.973388671875	346.6871948242188	29.56986999511719	-604.7423095703125	362.4095153808594	42.40511322021484	-715.2542114257812	182.5010375976562	74.12723541259766	-687.3372192382812	628.74365234375	456.8762512207031	-268.3013305664062	520.69677734375	696.1353149414062	-243.6126708984375	765.6500244140625	33.65708541870117	-288.9972839355469	686.8949584960938	348.8882446289062	-264.7133178710938	944.6310424804688	94.18592834472656	-232.4435729980469	923.3980712890625	66.09262084960938	-291.7615051269531	837.52001953125	54.73073577880859	-214.0904388427734	752.669189453125	16.00859451293945	-355.8968200683594	1033.687866210938	876.9141235351562	-636.6683349609375	270.5062561035156	699.2633056640625	-230.3636016845703	511.4400634765625	913.6622924804688	-629.8399658203125	
